# xmcd
# Copyright (C) 1995-1998 Ti Kan
#
# Track frame offsets:
#       150
#       17901
#       38198
#       55503
#
# Disc length: 944 seconds
#
# Revision: 2
# Processed by: cddbd v1.5.1PL2 Copyright (c) Steve Scherf et al.
# Submitted via: CD-Transfer v1.0
#
DISCID=2803ae04
DTITLE=Eastpole - 
DYEAR=2006
DGENRE=
TTITLE0=I Veri Amici
TTITLE1=Sarai Tu
TTITLE2=Indifferenti
TTITLE3=Andiamo Su
EXTD=
EXTT0=
EXTT1=
EXTT2=
EXTT3=
PLAYORDER=
